<?xml version="1.0" encoding="UTF-8" standalone="no"?>
<svg xmlns="http://www.w3.org/2000/svg" width="512" height="512" viewBox="0 0 512 512">
  <rect width="512" height="512" rx="64" fill="#25D366"/>
  <path d="M 256 96 C 167.6 96 96 167.6 96 256 C 96 290.4 107.2 322.4 124.8 348.8 L 96 416 L 166.4 387.2 C 192 402.4 222.4 416 256 416 C 344.4 416 416 344.4 416 256 C 416 167.6 344.4 96 256 96 Z M 316.8 316.8 C 304 329.6 288 336 270.4 336 C 240 336 215.2 320 200 295.2 L 176 336 L 168 320 L 192 278.4 C 192 267.2 188 255.2 188 243.2 C 188 212.8 203.2 188 228 173.6 C 240.8 164.8 254.4 160 270.4 160 C 300.8 160 325.6 176 340.8 200.8 L 364.8 160 L 372.8 176 L 348.8 217.6 C 348.8 228.8 352.8 240.8 352.8 252.8 C 352.8 283.2 337.6 308 316.8 316.8 Z M 284.8 235.2 C 284.8 218.4 273.6 208 257.6 208 C 243.2 208 231.2 218.4 231.2 235.2 C 231.2 252 243.2 262.4 257.6 262.4 C 273.6 262.4 284.8 252 284.8 235.2 Z" fill="white"/>
</svg>
